<svg width="16" height="16" viewBox="0 0 16 16" fill="none" xmlns="http://www.w3.org/2000/svg">
<path d="M10.6663 7.33333V6H9.33301V4.668C9.3331 4.49282 9.29868 4.31933 9.23172 4.15745C9.16476 3.99557 9.06657 3.84846 8.94276 3.72452C8.81895 3.60059 8.67194 3.50225 8.51012 3.43513C8.34831 3.36801 8.17486 3.33342 7.99967 3.33333C7.26501 3.33333 6.66634 3.932 6.66634 4.668V6H5.33301V7.33333H4.66634V12.6667H11.333V7.33333H10.6663ZM9.33301 7.33333H6.66634V6H9.33301V7.33333ZM5.33301 6V4.668C5.33336 3.96074 5.61438 3.28253 6.11437 2.7823C6.61435 2.28207 7.29242 2.00071 7.99967 2C8.34998 2 8.69685 2.06902 9.02047 2.20312C9.34409 2.33721 9.63812 2.53376 9.88576 2.78152C10.1334 3.02928 10.3298 3.32341 10.4637 3.6471C10.5977 3.97079 10.6665 4.3177 10.6663 4.668V6H11.329C11.6838 6.00071 12.0239 6.1421 12.2746 6.39318C12.5253 6.64426 12.6662 6.98452 12.6663 7.33933V12.6607C12.6663 13.4007 12.0683 14 11.329 14H4.67034C4.31547 13.9995 3.97532 13.8581 3.72458 13.607C3.47384 13.3559 3.33301 13.0155 3.33301 12.6607V7.34C3.33301 6.59933 3.93101 6 4.67034 6H5.33301ZM5.33301 6H6.66634V7.33333H5.33301V6ZM9.33301 6H10.6663V7.33333H9.33301V6Z" fill="#626F86"/>
<path d="M7.99967 11.3333C8.73605 11.3333 9.33301 10.7364 9.33301 10C9.33301 9.26362 8.73605 8.66667 7.99967 8.66667C7.26329 8.66667 6.66634 9.26362 6.66634 10C6.66634 10.7364 7.26329 11.3333 7.99967 11.3333Z" fill="#626F86"/>
</svg>
