<svg width="84" height="69" viewBox="0 0 84 69" fill="none" xmlns="http://www.w3.org/2000/svg">
    <path fill-rule="evenodd" clip-rule="evenodd" d="M0 52.6271V10.5254C0 4.7124 4.701 0 10.5 0H73.5C79.299 0 84 4.71239 84 10.5254V52.6271C84 58.4401 79.299 63.1525 73.5 63.1525H55.0089L55.1882 53.9139L57.204 53.5429C61.7808 52.7004 63.5795 47.0888 60.3487 43.7317L55.9663 39.178H74.6666V52.6413L74.6667 52.6271V10.5254C74.6667 9.87953 74.1443 9.35593 73.5 9.35593H10.5C9.85567 9.35593 9.33333 9.87953 9.33333 10.5254V39.178H28.3665L23.9841 43.7317C22.8096 44.9521 22.2998 46.4703 22.3464 47.9491H13.4262C11.1656 47.9491 9.33301 49.7817 9.33301 52.0423C9.33301 54.3029 11.1656 56.1355 13.4262 56.1355H29.1877L29.3239 63.1525H10.5C4.701 63.1525 0 58.4401 0 52.6271ZM69.4166 56.1355C71.6718 56.1355 73.4999 54.3029 73.4999 52.0423C73.4999 49.7817 71.6718 47.9491 69.4166 47.9491C67.1614 47.9491 65.3333 49.7817 65.3333 52.0423C65.3333 54.3029 67.1614 56.1355 69.4166 56.1355Z" fill="black"/>
    <path d="M36.9788 69H47.8905C48.4272 69 48.8682 68.5763 48.8897 68.0399L49.6296 49.5128C49.6511 48.9765 50.0921 48.5527 50.6288 48.5527H56.4182C57.2998 48.5527 57.7501 47.4947 57.1388 46.8594L43.1553 32.3253C42.7619 31.9164 42.1074 31.9164 41.714 32.3253L27.7305 46.8594C27.1192 47.4947 27.5695 48.5527 28.4511 48.5527H34.2405C34.7772 48.5527 35.2182 48.9765 35.2397 49.5128L35.9796 68.0399C36.0011 68.5763 36.4421 69 36.9788 69Z" fill="black"/>
</svg>
