<svg width="170" height="38" viewBox="0 0 170 38" fill="none" xmlns="http://www.w3.org/2000/svg">
<path d="M25.8944 30.8064L1.44811 13.9434C-1.02923 12.2346 -0.1871 8.67662 2.90208 7.83994L28.8841 0.788114C29.4345 0.589518 30.0243 0.52505 30.6047 0.600065C31.1849 0.67508 31.7389 0.887412 32.2208 1.21944C32.7025 1.55147 33.0982 1.99362 33.3748 2.50918C33.6515 3.02475 33.8012 3.59887 33.8116 4.18389L32.2718 28.0975C32.0892 30.9359 28.3718 32.5152 25.8944 30.8064Z" fill="#E9327C"/>
<path d="M18.1409 34.9694L3.73879 6.80441C3.40957 6.16008 3.2647 5.43734 3.32015 4.7159C3.37559 3.99446 3.62921 3.30234 4.05302 2.71589C4.47684 2.12944 5.05438 1.67141 5.72197 1.39234C6.38955 1.11326 7.12124 1.02398 7.83634 1.13435L34.527 5.25369C35.1415 5.34855 35.7247 5.5879 36.2287 5.95207C36.7327 6.31626 37.143 6.79486 37.426 7.34853C37.7089 7.90219 37.8564 8.51511 37.8563 9.1369C37.8562 9.75867 37.7085 10.3716 37.4254 10.9251L25.13 34.9708C24.7999 35.6133 24.2989 36.1524 23.6823 36.5286C23.0657 36.905 22.3574 37.1039 21.6351 37.1038C20.9127 37.1036 20.2044 36.9044 19.5879 36.5279C18.9714 36.1513 18.4708 35.6121 18.1409 34.9694Z" fill="#1DACE3"/>
<path d="M33.7463 5.13234L20.4412 3.0788L4.10547 7.51429L10.6259 20.2703L25.8946 30.8064C26.2314 31.0363 26.602 31.2124 26.9929 31.3283L32.7924 19.9868L33.7463 5.13234Z" fill="#001A49"/>
<path d="M52.1695 8.25408V25.352H48.0046V8.25408H52.1695Z" fill="black"/>
<path d="M62.251 11.6152C63.8422 11.6152 65.1087 12.1348 66.0505 13.174C67.0085 14.1969 67.4875 15.6096 67.4875 17.4119V25.352H63.347V17.9721C63.347 17.0628 63.1116 16.3565 62.6407 15.8531C62.1698 15.3498 61.5365 15.0981 60.7409 15.0981C59.9453 15.0981 59.312 15.3498 58.8411 15.8531C58.3703 16.3565 58.1348 17.0628 58.1348 17.9721V25.352H53.9699V11.7613H58.1348V13.5637C58.557 12.9629 59.1253 12.492 59.8397 12.151C60.5542 11.7938 61.3579 11.6152 62.251 11.6152Z" fill="black"/>
<path d="M68.3358 18.581C68.3358 17.2333 68.6118 16.0317 69.1639 14.9763C69.7322 13.9209 70.4872 13.1009 71.429 12.5164C72.387 11.9156 73.4262 11.6152 74.5466 11.6152C75.4071 11.6152 76.1784 11.7695 76.8604 12.078C77.5423 12.3702 78.0944 12.7843 78.5166 13.3201V11.7613H82.6815V31.8307H78.5166V23.647C78.0457 24.2154 77.4693 24.67 76.7873 25.011C76.1216 25.352 75.3584 25.5225 74.4978 25.5225C73.3937 25.5225 72.3708 25.2302 71.429 24.6456C70.4872 24.0611 69.7322 23.2411 69.1639 22.1857C68.6118 21.1303 68.3358 19.9287 68.3358 18.581ZM78.5166 18.5567C78.5166 17.826 78.3704 17.2171 78.0782 16.73C77.8021 16.2266 77.4368 15.8531 76.9822 15.6096C76.5275 15.3498 76.0485 15.2199 75.5452 15.2199C75.058 15.2199 74.5871 15.3498 74.1325 15.6096C73.6779 15.8531 73.3044 16.2266 73.0121 16.73C72.7199 17.2333 72.5737 17.8503 72.5737 18.581C72.5737 19.3117 72.7199 19.9287 73.0121 20.4321C73.3044 20.9192 73.6779 21.2926 74.1325 21.5524C74.5871 21.796 75.058 21.9178 75.5452 21.9178C76.0323 21.9178 76.5032 21.796 76.9578 21.5524C77.4287 21.2926 77.8021 20.9111 78.0782 20.4077C78.3704 19.9043 78.5166 19.2873 78.5166 18.5567Z" fill="black"/>
<path d="M97.8969 11.7613V25.352H93.732V23.5009C93.3098 24.1017 92.7334 24.5888 92.0027 24.9623C91.2883 25.3195 90.4927 25.4981 89.6159 25.4981C88.5767 25.4981 87.6593 25.2708 86.8636 24.8161C86.068 24.3453 85.451 23.6714 85.0126 22.7946C84.5742 21.9178 84.355 20.8867 84.355 19.7014V11.7613H88.4955V19.1412C88.4955 20.0505 88.7309 20.7568 89.2018 21.2602C89.6727 21.7635 90.3059 22.0152 91.1016 22.0152C91.9134 22.0152 92.5548 21.7635 93.0257 21.2602C93.4966 20.7568 93.732 20.0505 93.732 19.1412V11.7613H97.8969Z" fill="black"/>
<path d="M101.765 10.3487C101.035 10.3487 100.434 10.1376 99.963 9.71543C99.5083 9.27703 99.281 8.7412 99.281 8.10794C99.281 7.45845 99.5083 6.92262 99.963 6.50045C100.434 6.06204 101.035 5.84283 101.765 5.84283C102.48 5.84283 103.064 6.06204 103.519 6.50045C103.99 6.92262 104.225 7.45845 104.225 8.10794C104.225 8.7412 103.99 9.27703 103.519 9.71543C103.064 10.1376 102.48 10.3487 101.765 10.3487ZM103.836 11.7613V25.352H99.6707V11.7613H103.836Z" fill="black"/>
<path d="M109.533 21.9178H115.427V25.352H104.881V22.0396L110.532 15.1955H104.93V11.7613H115.305V15.0737L109.533 21.9178Z" fill="black"/>
<path d="M118.596 10.3487C117.865 10.3487 117.264 10.1376 116.793 9.71543C116.339 9.27703 116.111 8.7412 116.111 8.10794C116.111 7.45845 116.339 6.92262 116.793 6.50045C117.264 6.06204 117.865 5.84283 118.596 5.84283C119.31 5.84283 119.895 6.06204 120.349 6.50045C120.82 6.92262 121.056 7.45845 121.056 8.10794C121.056 8.7412 120.82 9.27703 120.349 9.71543C119.895 10.1376 119.31 10.3487 118.596 10.3487ZM120.666 11.7613V25.352H116.501V11.7613H120.666Z" fill="black"/>
<path d="M130.041 21.8204V25.352H127.922C126.412 25.352 125.235 24.9866 124.39 24.2559C123.546 23.509 123.124 22.2994 123.124 20.6269V15.2199H121.468V11.7613H123.124V8.44892H127.289V11.7613H130.017V15.2199H127.289V20.6756C127.289 21.0816 127.386 21.3738 127.581 21.5524C127.776 21.731 128.101 21.8204 128.555 21.8204H130.041Z" fill="black"/>
<path d="M133.238 10.3487C132.507 10.3487 131.906 10.1376 131.435 9.71543C130.981 9.27703 130.753 8.7412 130.753 8.10794C130.753 7.45845 130.981 6.92262 131.435 6.50045C131.906 6.06204 132.507 5.84283 133.238 5.84283C133.952 5.84283 134.537 6.06204 134.991 6.50045C135.462 6.92262 135.698 7.45845 135.698 8.10794C135.698 8.7412 135.462 9.27703 134.991 9.71543C134.537 10.1376 133.952 10.3487 133.238 10.3487ZM135.308 11.7613V25.352H131.143V11.7613H135.308Z" fill="black"/>
<path d="M143.222 21.455L146.169 11.7613H150.602L145.779 25.352H140.64L135.818 11.7613H140.275L143.222 21.455Z" fill="black"/>
<path d="M163.948 18.3374C163.948 18.7271 163.924 19.1331 163.875 19.5552H154.449C154.514 20.3996 154.782 21.0491 155.253 21.5037C155.74 21.9421 156.333 22.1613 157.031 22.1613C158.07 22.1613 158.793 21.7229 159.199 20.8461H163.632C163.404 21.7392 162.99 22.5429 162.389 23.2574C161.805 23.9718 161.066 24.532 160.173 24.9379C159.28 25.3438 158.281 25.5468 157.177 25.5468C155.846 25.5468 154.66 25.2627 153.621 24.6944C152.582 24.1261 151.77 23.3142 151.186 22.2588C150.601 21.2033 150.309 19.9693 150.309 18.5567C150.309 17.144 150.593 15.91 151.161 14.8545C151.746 13.7991 152.558 12.9873 153.597 12.4189C154.636 11.8506 155.83 11.5665 157.177 11.5665C158.492 11.5665 159.662 11.8425 160.684 12.3946C161.707 12.9467 162.503 13.7342 163.071 14.7571C163.656 15.7801 163.948 16.9735 163.948 18.3374ZM159.686 17.2414C159.686 16.527 159.442 15.9587 158.955 15.5365C158.468 15.1143 157.859 14.9033 157.129 14.9033C156.43 14.9033 155.838 15.1062 155.351 15.5122C154.88 15.9181 154.587 16.4945 154.474 17.2414H159.686Z" fill="black"/>
<path d="M166.876 25.5468C166.145 25.5468 165.545 25.3357 165.074 24.9136C164.619 24.4752 164.392 23.9393 164.392 23.3061C164.392 22.6566 164.619 22.1126 165.074 21.6742C165.545 21.2358 166.145 21.0166 166.876 21.0166C167.59 21.0166 168.175 21.2358 168.63 21.6742C169.101 22.1126 169.336 22.6566 169.336 23.3061C169.336 23.9393 169.101 24.4752 168.63 24.9136C168.175 25.3357 167.59 25.5468 166.876 25.5468Z" fill="black"/>
</svg>
