<svg width="427" height="101" viewBox="0 0 427 101" fill="none" xmlns="http://www.w3.org/2000/svg">
<path d="M87.4319 62.3652C88.972 54.9564 89.3466 47.7974 87.6401 40.6384C86.2249 34.7696 83.4362 29.5252 79.4405 24.9884C74.529 19.411 68.577 15.3736 61.418 13.2925C53.1768 10.8784 44.9356 11.0449 36.736 13.9169C30.451 16.1645 25.165 19.8272 20.8363 24.7803C15.8 30.5658 12.6367 37.3086 11.6378 45.0503C10.4307 54.457 12.1789 63.3225 17.2152 71.314C21.9185 78.806 28.4532 84.2585 36.9441 87.2969C44.3529 89.9191 51.8449 90.377 59.3785 88.4207C62.5002 87.6299 65.6635 86.7559 68.4106 84.8412C69.1181 84.3418 69.909 84.2169 70.6165 85.0077C72.5312 87.0888 74.4042 89.2116 76.4437 91.1678C77.3594 92.0835 77.5258 92.4997 76.3188 93.2489C72.7809 95.4549 69.0765 97.3695 65.0808 98.4933C59.9612 99.9085 54.7585 101.199 49.3476 100.949C39.5663 100.45 30.451 97.9523 22.2515 92.3749C16.2578 88.2959 11.2215 83.2596 7.64203 77.0995C0.649488 65.0706 -1.93109 52.2094 1.52356 38.3491C2.85547 32.9799 4.81172 27.9019 7.7669 23.2819C11.3048 17.7877 15.7168 13.126 21.1277 9.29679C27.4126 4.80158 34.2803 1.8464 41.8139 0.680975C51.8033 -0.85905 61.5013 0.139885 70.8247 4.42698C79.6486 8.46434 86.7244 14.5412 91.9271 22.5743C97.0051 30.3993 100.085 39.0151 99.9602 48.5466C99.9186 50.6693 98.0872 51.2104 97.0883 52.3759C93.9666 55.9137 90.6369 59.077 87.4319 62.3652Z" fill="#64B79A"/>
<path d="M70.9911 57.8284C71.4074 58.1614 71.782 58.4528 72.1149 58.7857C75.6528 62.4485 79.2323 66.0696 82.687 69.8156C83.6443 70.8562 84.2686 70.6481 85.0178 69.8156C89.5547 64.7793 94.5077 60.1176 99.211 55.2478C104.788 49.4623 110.449 43.8017 116.235 38.2243C119.107 35.4773 119.023 35.5189 122.145 38.4741C124.642 40.8465 126.931 43.3855 129.429 45.758C130.553 46.8401 130.303 47.2564 129.429 48.1304C122.187 55.3727 114.944 62.615 107.702 69.8573C100.085 77.4741 92.5099 85.1326 84.9346 92.7495C84.3519 93.3322 83.9357 93.9982 82.9784 92.9993C77.734 87.5467 72.4063 82.1775 67.1203 76.7666C64.8727 74.4773 62.6667 72.2297 60.4191 69.9821C59.8364 69.3994 59.5866 68.9832 60.2942 68.2756C63.5824 64.9875 66.7873 61.6993 70.0755 58.4111C70.3252 58.203 70.6582 58.0782 70.9911 57.8284Z" fill="#264D84"/>
<path d="M49.4724 37.4335C56.2569 37.4751 61.5429 42.8444 61.5013 49.6288C61.418 56.7046 55.8823 61.7825 49.5973 61.7409C42.022 61.6993 37.402 56.0803 37.2355 49.3374C37.0274 42.7195 42.688 37.3918 49.4724 37.4335Z" fill="#274D83"/>
<path d="M158.297 31.986V68.49H149.405V31.986H158.297ZM194.797 68.49H185.905L171.033 45.974V68.49H162.141V31.986H171.033L185.905 54.606V31.986H194.797V68.49ZM224.642 74.73L219.962 68.438C218.576 68.7153 217.224 68.854 215.906 68.854C212.474 68.854 209.32 68.0567 206.442 66.462C203.6 64.8673 201.329 62.6487 199.63 59.806C197.966 56.9287 197.134 53.7047 197.134 50.134C197.134 46.5633 197.966 43.3567 199.63 40.514C201.329 37.6713 203.6 35.4527 206.442 33.858C209.32 32.2633 212.474 31.466 215.906 31.466C219.338 31.466 222.476 32.2633 225.318 33.858C228.196 35.4527 230.449 37.6713 232.078 40.514C233.742 43.3567 234.574 46.5633 234.574 50.134C234.574 53.254 233.933 56.114 232.65 58.714C231.402 61.2793 229.652 63.4113 227.398 65.11L235.406 74.73H224.642ZM206.234 50.134C206.234 53.358 207.101 55.9407 208.834 57.882C210.602 59.7887 212.96 60.742 215.906 60.742C218.818 60.742 221.141 59.7713 222.874 57.83C224.642 55.8887 225.526 53.3233 225.526 50.134C225.526 46.91 224.642 44.3447 222.874 42.438C221.141 40.4967 218.818 39.526 215.906 39.526C212.96 39.526 210.602 40.4793 208.834 42.386C207.101 44.2927 206.234 46.8753 206.234 50.134ZM245.759 31.986V53.826C245.759 56.01 246.296 57.6913 247.371 58.87C248.446 60.0487 250.023 60.638 252.103 60.638C254.183 60.638 255.778 60.0487 256.887 58.87C257.996 57.6913 258.551 56.01 258.551 53.826V31.986H267.443V53.774C267.443 57.0327 266.75 59.7887 265.363 62.042C263.976 64.2953 262.104 65.994 259.747 67.138C257.424 68.282 254.824 68.854 251.947 68.854C249.07 68.854 246.487 68.2993 244.199 67.19C241.946 66.046 240.16 64.3473 238.843 62.094C237.526 59.806 236.867 57.0327 236.867 53.774V31.986H245.759ZM279.979 31.986V68.49H271.087V31.986H279.979ZM293.287 61.21H308.991V68.49H283.199V61.73L298.799 39.266H283.199V31.986H308.991V38.746L293.287 61.21ZM321.091 31.986V68.49H312.199V31.986H321.091ZM351.195 31.986V39.11H341.523V68.49H332.631V39.11H322.959V31.986H351.195ZM361.95 31.986V68.49H353.058V31.986H361.95ZM400.062 31.986L387.114 68.49H375.986L363.038 31.986H372.502L381.55 59.546L390.65 31.986H400.062ZM410.07 39.11V46.494H421.978V53.358H410.07V61.366H423.538V68.49H401.178V31.986H423.538V39.11H410.07Z" fill="#264D84"/>
</svg>
